<svg width="18" height="18" viewBox="0 0 18 18" fill="none" xmlns="http://www.w3.org/2000/svg">
<g clip-path="url(#clip0_1139_4917)">
<path d="M2.25032 7.96087L3.50478 9.15654L7.47003 12.7981L9.17003 11.1753C9.24284 11.0719 9.27916 10.9472 9.27326 10.8209C9.26736 10.6945 9.21958 10.5738 9.13745 10.4776L7.57628 9.13033L7.58336 9.12679L5.90391 7.52171C5.80868 7.41633 5.75721 7.27862 5.75997 7.13662C5.76274 6.99462 5.81953 6.85901 5.91878 6.75742L10.445 2.45358L8.39511 0.5L2.25316 6.33525C2.14182 6.43935 2.05307 6.56521 1.99238 6.70503C1.9317 6.84485 1.90039 6.99564 1.90039 7.14806C1.90039 7.30048 1.9317 7.45127 1.99238 7.59109C2.05307 7.73091 2.14182 7.85677 2.25316 7.96087H2.25032ZM15.7483 10.0413L14.4946 8.84346L10.5314 5.20121L8.82366 6.824C8.7469 6.92581 8.70808 7.05122 8.7139 7.1786C8.71972 7.30597 8.76981 7.42732 8.85553 7.52171L10.4174 8.86117H10.4132L12.0912 10.4655C12.1855 10.5696 12.2359 10.7061 12.2321 10.8465C12.2283 10.9869 12.1705 11.1204 12.0707 11.2192L7.5437 15.5223L9.60565 17.5L15.7469 11.6648C15.8583 11.5607 15.9472 11.4349 16.0079 11.295C16.0687 11.1552 16.1 11.0044 16.1 10.8519C16.1 10.6995 16.0687 10.5487 16.0079 10.4088C15.9472 10.269 15.8583 10.1432 15.7469 10.0391L15.7483 10.0413Z" fill="white"/>
</g>
<defs>
<clipPath id="clip0_1139_4917">
<rect width="17" height="17" fill="white" transform="translate(0.5 0.5)"/>
</clipPath>
</defs>
</svg>
