<svg width="17" height="18" viewBox="0 0 17 18" fill="none" xmlns="http://www.w3.org/2000/svg">
<g clip-path="url(#clip0_1139_6680)">
<path d="M1.75032 7.96087L3.00478 9.15654L6.97003 12.7981L8.67003 11.1753C8.74284 11.0719 8.77916 10.9472 8.77326 10.8209C8.76736 10.6945 8.71958 10.5738 8.63745 10.4776L7.07628 9.13033L7.08336 9.12679L5.40391 7.52171C5.30868 7.41633 5.25721 7.27862 5.25997 7.13662C5.26274 6.99462 5.31953 6.85901 5.41878 6.75742L9.94503 2.45358L7.89511 0.5L1.75316 6.33525C1.64182 6.43935 1.55307 6.56521 1.49238 6.70503C1.4317 6.84485 1.40039 6.99564 1.40039 7.14806C1.40039 7.30048 1.4317 7.45127 1.49238 7.59109C1.55307 7.73091 1.64182 7.85677 1.75316 7.96087H1.75032ZM15.2483 10.0413L13.9946 8.84346L10.0314 5.20121L8.32366 6.824C8.2469 6.92581 8.20808 7.05122 8.2139 7.1786C8.21972 7.30597 8.26981 7.42732 8.35553 7.52171L9.91741 8.86117H9.91315L11.5912 10.4655C11.6855 10.5696 11.7359 10.7061 11.7321 10.8465C11.7283 10.9869 11.6705 11.1204 11.5707 11.2192L7.0437 15.5223L9.10565 17.5L15.2469 11.6648C15.3583 11.5607 15.4472 11.4349 15.5079 11.295C15.5687 11.1552 15.6 11.0044 15.6 10.8519C15.6 10.6995 15.5687 10.5487 15.5079 10.4088C15.4472 10.269 15.3583 10.1432 15.2469 10.0391L15.2483 10.0413Z" fill="white"/>
</g>
<defs>
<clipPath id="clip0_1139_6680">
<rect width="17" height="17" fill="white" transform="translate(0 0.5)"/>
</clipPath>
</defs>
</svg>
